<?xml version="1.0" encoding="UTF-8"?>
<svg id="Nova_Logo" data-name="Nova Logo" xmlns="http://www.w3.org/2000/svg" viewBox="0 0 127.3 118.24">
  <defs>
    <style>
      .cls-1 {
        fill: #1a1517;
        opacity: .23;
      }

      .cls-1, .cls-2, .cls-3, .cls-4, .cls-5, .cls-6, .cls-7, .cls-8, .cls-9, .cls-10, .cls-11, .cls-12, .cls-13 {
        stroke-width: 0px;
      }

      .cls-2 {
        fill: #f7f6f8;
      }

      .cls-3 {
        fill: #4c4c4d;
      }

      .cls-4 {
        fill: #a3a3a3;
      }

      .cls-5 {
        fill: #0e0e0e;
      }

      .cls-6 {
        fill: #cccccb;
      }

      .cls-7 {
        fill: #d9d8d8;
      }

      .cls-8 {
        fill: #c46128;
      }

      .cls-9 {
        fill: #b8b6b7;
      }

      .cls-10 {
        fill: #fff;
      }

      .cls-11 {
        fill: #eda26d;
      }

      .cls-12 {
        fill: #e47125;
      }

      .cls-13 {
        fill: #e6e6e5;
      }
    </style>
  </defs>
  <g id="Shadow">
    <path class="cls-1" d="m48.35,111.2v1.15c-.38,0-.76.02-1.14.02-.39,0-.78,0-1.2,0v1.16h-2.37v1.19h-2.37v1.15h-2.26c-.21.39-.01.79-.15,1.19h-2.21c-.2.39,0,.79-.14,1.18h-2.29v-1.15h-2.33v-1.16c-.41,0-.79-.02-1.17-.02-.39,0-.78,0-1.2,0v-1.16h-2.37v-1.19h-2.37v-1.15h-2.27c-.21-.39-.01-.79-.15-1.19h-2.21c-.2-.39,0-.79-.15-1.19h-2.29v-1.19h-2.33v-1.16c-.41,0-.79-.02-1.17-.02-.39,0-.78,0-1.2,0v-1.16h-2.37v-1.19h-2.37v-1.15h-2.27c-.21-.39-.01-.79-.15-1.19h-2.21c-.2-.39,0-.79-.15-1.19H1.22v-1.19H.07v-1.16c.33-.02.71-.03,1.12-.05v-1.14h2.37v-1.19h2.37v-1.19h4.72v1.18h2.36v1.18h2.36v1.18h2.36v1.18h2.36v1.18h2.36v1.18h2.36v1.18h2.36v1.18h2.36v1.18h2.36v1.18h2.36v1.18c.45,0,.84,0,1.23,0,.38,0,.76-.01,1.13-.02v-1.16h2.36v-1.18h2.36v-1.18h2.36v-1.18h2.36v-1.18h1.18c0,2.35,0,4.63,0,6.92,0,.03.01.06.03.08.02.03.04.05.06.07h1.09v1.18Z"/>
    <path class="cls-1" d="m102.55,84.09v1.15c-.38,0-.76.02-1.14.02-.39,0-.78,0-1.2,0v1.16h-2.37v1.16h-2.29c-.17.39,0,.79-.12,1.19h-2.22c-.2.39,0,.79-.15,1.19h-2.22c-.18.39,0,.79-.14,1.19h-2.27v1.16c-.41,0-.79.02-1.17.02-.39,0-.78,0-1.2,0v1.16h-2.37v1.19h-2.37v1.15h-2.27c-.2.39,0,.79-.15,1.19h-2.22c-.19.39,0,.79-.14,1.19h-2.27v1.17c-.41,0-.79.02-1.17.02-.39,0-.78,0-1.2,0v1.16h-2.37v1.19h-2.37v1.19h-1.18v-9.4c.43-.02.81-.04,1.18-.06v-1.15h2.36v-1.18h2.36v-1.18h2.36v-1.18h2.36v-1.18h2.36v-1.18h2.36v-1.18h2.36v-1.18h2.36v-1.18h2.36v-1.18h2.36v-1.18h2.36v-1.18h2.36v-1.18h2.36v-1.18h2.36v-1.18h1.18c0,2.35,0,4.63,0,6.92,0,.03.01.06.03.08.02.03.04.05.06.07h1.09v1.18Z"/>
    <path class="cls-1" d="m120.23,67.6h1.1c.19.35,0,.76.13,1.15h2.21c.2.39,0,.79.15,1.19h2.29v1.19h1.15v1.12c-.32.17-.72-.03-1.12.11v1.11h-2.37v1.19h-2.37v1.19h-1.18v-8.25Z"/>
    <path class="cls-1" d="m102.55,82.92v-8.24h2.36v-1.18h2.36v-1.18h2.36v-1.18h2.36v-1.18h2.36v-1.18h2.36v-1.18h2.36v8.25h-2.36v1.18h-2.36v1.18h-2.36v1.18h-2.36v1.18h-2.36v1.18h-2.36v1.18h-2.36Z"/>
    <path class="cls-1" d="m48.35,110.02v-8.24h2.36v-1.18h2.36v-1.18h2.36v-1.18h2.36v-1.18h2.36v-1.18h2.36v-1.18h2.36v8.25h-2.36v1.18h-2.36v1.18h-2.36v1.18h-2.36v1.18h-2.36v1.18h-2.36v1.18h-2.36Z"/>
  </g>
  <g id="Car">
    <g id="Fills">
      <path class="cls-13" d="m110.8,49.92v-1.18h-1.18v-1.18h-1.18v-1.18h-1.18v-1.18h-1.18v-1.18h-1.18v-1.18h-1.18v-1.18h-1.18v-1.18h-2.36v-1.18h-2.36v-1.18h-2.36v-1.18h-2.36v-1.18h-2.36v-1.18h-2.36v-1.18h-2.36v-1.18h-2.36v-1.18h-2.36v-1.18h-2.36v-1.18h-2.36v-1.18h-2.36v1.18h-2.36v1.18h-2.36v1.18h-2.36v.85s0,.02,0,.03v.3h-2.36v1.18h-2.36v1.18h-2.36v1.18h-2.36v1.18h-2.36v1.18h-2.36v1.18h-2.36v1.18h-2.36v1.18h-2.36v1.18h-2.36v1.18h2.36v1.18h2.36v1.18h2.36v1.18h2.36v1.18h2.36v1.18h2.36v1.18h2.36v1.18h2.36v1.18h2.36v1.18h2.36v1.18h2.36v1.18h1.18v2.36h1.18v-2.36h1.18v-1.18h1.18v-1.18h2.36v-1.18h2.36v-1.18h2.36v-1.18h2.36v-1.18h2.36v-1.18h2.36v-1.18h2.36v-1.18h2.36v-1.18h2.36v-1.16c.37,0,.75-.02,1.13-.02.39,0,.77,0,1.23,0v1.18h1.18v1.18h1.18v1.18h1.18v1.18h1.18v1.18h1.18v1.18h1.18v1.18h1.14c.02.37.04.74.06,1.18h1.15v-1.18h2.36v-1.18h2.36v-1.18h-1.18Z"/>
      <path class="cls-6" d="m88.41,81.74h-2.36v1.18h-2.36v1.18h-2.36v1.18h-2.36v1.18h-2.36v1.18h-2.36v1.18h-2.36v1.18h-2.36v1.18h-2.36v1.18h-1.09s-.04-.04-.06-.07c-.02-.03-.03-.06-.03-.08,0-2.28,0-4.57,0-6.92h-1.18v-1.18c-.45,0-.84,0-1.23,0-.38,0-.76.01-1.13.02v1.16h-2.36v1.18h-2.36v1.18h-2.36v1.18h-2.36v1.18h-2.36v1.18h-2.36v1.18h-1.07s-.05.04-.07.07c-.02.02-.03.05-.03.08,0,3.06,0,6.12,0,9.24-.37.02-.74.04-1.18.06v1.15h-2.36v1.18h-2.36v1.18h-2.36v1.18h-2.36v1.18h-2.36v-1.18h-2.36v-1.18h-2.36v-1.18h-2.36v-1.18h-2.36v-1.18h-2.36v-1.18h-2.36v-1.18h-2.36v-1.18h-2.36v-1.18h-2.36v-1.18h-2.36v-1.18h-2.36v-1.18h-2.36v-1.18h-2.36v-1.18H1.21v-5.89h2.36v1.18h2.36v1.18h2.36v1.18h2.36v1.18h2.36v1.18h2.36v1.18h2.36v1.18h2.36v1.18h2.36v1.18h2.36v1.18h2.36v1.18h2.36v1.18h2.36v1.18h2.36v1.18c.45,0,.84,0,1.23,0,.38,0,.76-.01,1.13-.02v-1.16h2.4c-.12-.43.05-.82-.11-1.18h-2.29v-1.18h-2.36v-1.18h-2.36v-1.18h-2.36v-1.18h-2.36v-1.18h-2.36v-1.18h-2.36v-1.18h-2.36v-1.18h-2.36v-1.18h-2.36v-1.18h-2.36v-1.18h-2.36v-1.18h-2.36v-1.18h-2.36v-1.18h-2.36v-10.61h2.36v1.18h2.36v1.18h2.36v1.18h2.36v1.18h2.36v1.18h2.36v1.18h2.36v1.18h2.36v1.18h2.36v1.18h2.36v1.18h2.36v1.18h2.36v1.18h2.36v1.18h2.36v1.18c.45,0,.84,0,1.23,0,.38,0,.76-.01,1.13-.02v-1.16h2.36v-1.18h2.36v-1.18h2.36v-1.18h2.36v-1.18h2.36v-1.18h2.36v-1.18h2.36v-1.18h2.36v-1.18h2.36v-1.18h2.36v-1.18h2.3c.15-.41-.04-.81.14-1.19h2.28v-1.17h2.36v-1.18h2.36v-1.18h2.36v-1.18h2.36v-1.18h2.36v-1.18h2.36v-1.18h2.36v-1.18h2.36v-1.18h2.36v-1.18h2.36v-1.18h2.36v-1.18h2.36v-1.18h2.36v-1.18h2.36v-1.18h2.36v-1.18h2.36v-1.18h2.36v-1.18h2.36v-1.18h2.36v-1.18h2.36v-1.18h2.36v-1.18h2.36v-1.18h2.36v-1.18h2.36v8.23h2.36v5.91h-1.18v1.18h-1.18v1.18h-1.18v1.18h-1.18v1.18h-1.09s-.04-.04-.06-.07c-.02-.03-.03-.06-.03-.08,0-2.28,0-4.57,0-6.92h-1.18v-1.18c-.45,0-.84,0-1.23,0-.38,0-.76.01-1.13.02v1.16h-2.36v1.18h-2.36v1.18h-2.36v1.18h-2.36v1.18h-2.36v1.18h-2.36v1.18h-1.07s-.05.04-.07.07c-.02.02-.03.05-.03.08,0,3.06,0,6.12,0,9.24-.37.02-.74.04-1.18.06v1.15h-2.36v1.18h-2.36v1.18h-2.36v1.18h-2.36v1.18h-2.36v1.18Z"/>
      <path class="cls-13" d="m121.41,42.85v1.18h2.36v1.16c-.37,0-.75.02-1.13.02-.39,0-.77,0-1.23,0v1.18h-2.36v1.18h-2.36v1.18h-2.36v1.18h-2.36v-1.18h-1.18v-1.18h-1.18v-1.18h-1.18v-1.18h-1.18v-1.18h-1.18v-1.18h-1.18v-1.18h-1.18v-1.18h-1.18v-1.18h-2.36v-1.18h-2.36v-1.18h-2.36v-1.18h-2.36v-1.18h-2.36v-1.18h-2.36v-1.18h-2.36v-1.18h-2.36v-1.18h2.36v-1.18h2.36v-1.18h2.36v1.18h2.36v1.18h2.36v1.18h2.36v1.18h2.36v1.18h2.36v1.18h2.36v1.18h2.36v1.18h2.36v1.18h2.36v1.18h2.36v1.18h2.36v1.18h2.36v1.18h2.36Z"/>
      <path class="cls-13" d="m126.13,52.28v1.16h-1.19v-1.16h1.19Z"/>
      <path class="cls-6" d="m104.91,73.49h-2.36v-8.25h2.36v-1.18h2.36v-1.18h2.36v-1.18h2.36v-1.18h2.36v-1.18h2.36v-1.18h2.36v8.24h-2.36v1.18h-2.36v1.18h-2.36v1.18h-2.36v1.18h-2.36v1.18h-2.36v1.18Z"/>
      <path class="cls-6" d="m50.7,100.59h-2.36v-8.25h2.36v-1.18h2.36v-1.18h2.36v-1.18h2.36v-1.18h2.36v-1.18h2.36v-1.18h2.36v8.24h-2.36v1.18h-2.36v1.18h-2.36v1.18h-2.36v1.18h-2.36v1.18h-2.36v1.18Z"/>
      <path class="cls-13" d="m29.49,56.99h1.18v2.36h1.18v1.18h2.36v1.18h2.36v1.18h2.36v1.18h2.36v1.18h2.36v1.18h2.36v1.18h2.36v1.18h2.36v1.18h2.36v1.18h2.36v1.18h2.36v1.18h2.36v1.18h2.36v1.18h-2.36v1.18h-2.36v1.18h-2.36v1.18h-2.36v1.18h-2.36v1.18h-2.36v1.18h-2.36v1.18h-2.36v1.18h-2.36v1.18h-2.36v1.18h-2.36v-1.18h-2.36v-1.18h-2.36v-1.18h-2.36v-1.18h-2.36v-1.18h-2.36v-1.18h-2.36v-1.18h-2.36v-1.18h-2.36v-1.18h-2.36v-1.18h-2.36v-1.18h-2.36v-1.18h-2.36v-1.18h-2.36v-1.16c-.37,0-.75-.02-1.13-.02-.39,0-.77,0-1.23,0v-1.18h2.36v-1.18h2.36v-1.18h2.36v-1.18h2.36v-1.18h2.36v-1.18h2.36v-1.18h2.36v-1.18h2.36v-1.18h2.36v-1.18h2.36v-1.18h2.36v-1.18Z"/>
      <path class="cls-13" d="m3.57,84.09H1.21v-1.18h2.36v1.18Z"/>
      <path class="cls-13" d="m3.57,85.27v-1.18h2.36v1.18h-2.36Z"/>
      <path class="cls-13" d="m37.74,48.74h1.18v1.18h-1.18v-1.18Z"/>
      <path class="cls-13" d="m36.56,51.1v-1.18h1.18v1.18h-1.18Z"/>
      <path class="cls-13" d="m38.92,47.56h1.18v1.18h-1.18v-1.18Z"/>
      <path class="cls-13" d="m35.38,52.28v-1.18h1.18v1.18h-1.18Z"/>
      <path class="cls-13" d="m40.1,46.39h1.18v1.18h-1.18v-1.18Z"/>
      <path class="cls-13" d="m30.67,55.81h1.18v1.18h-1.18v-1.18Z"/>
      <path class="cls-13" d="m41.28,45.21h1.18v1.18h-1.18v-1.18Z"/>
      <path class="cls-13" d="m34.21,53.46v-1.18h1.18v1.18h-1.18Z"/>
      <path class="cls-13" d="m31.85,54.63h1.18v1.18h-1.18v-1.18Z"/>
      <path class="cls-13" d="m33.03,53.46h1.18v1.18h-1.18v-1.18Z"/>
      <path class="cls-13" d="m42.45,44.03h1.18v1.18h-1.18v-1.18Z"/>
      <path class="cls-13" d="m68.38,64.06v-2.36h1.18v2.36h-1.18Z"/>
      <path class="cls-13" d="m67.2,66.42v-2.36h1.18v2.36h-1.18Z"/>
      <path class="cls-13" d="m66.02,66.42h1.18v2.36h-1.18v-2.36Z"/>
      <path class="cls-13" d="m103.73,51.1v1.18h1.18v2.36h-2.36v1.18h-2.36v1.18h-2.36v1.18h-2.36v1.18h-2.36v1.18h-2.36v1.18h-2.36v1.18h-2.36v1.18h-2.36v1.18h-2.36v1.18h-2.36v1.18h-2.36v1.18h-2.36v1.18h-2.36v1.18h-2.36v1.18h-2.36v1.18h-1.18v-2.36h1.18v-2.36h1.18v-2.36h1.18v-2.36h1.18v-2.36h1.18v-2.36h1.18v-2.36h1.18v-1.18h2.36v-1.18h2.36v-1.18h2.36v-1.18h2.36v-1.18h2.36v-1.18h2.36v-1.18h2.36v-1.18h2.36v-1.18h2.36v-1.18h2.36v1.18h1.18v1.18h1.18v1.18h1.18v1.18h1.18v1.18h1.18Z"/>
      <path class="cls-13" d="m64.84,71.13v2.36h-1.18v-2.36h1.18Z"/>
      <path class="cls-13" d="m66.02,71.13h-1.18v-2.36h1.18v2.36Z"/>
      <path class="cls-13" d="m62.49,74.67v-1.18h1.18v1.18h-1.18Z"/>
      <path class="cls-13" d="m34.21,99.41h2.36v1.18h-2.36v-1.18Z"/>
      <path class="cls-13" d="m31.85,98.23h2.36v1.18h-2.36v-1.18Z"/>
      <path class="cls-13" d="m29.49,97.06h2.36v1.18h-2.36v-1.18Z"/>
      <path class="cls-13" d="m27.14,95.88h2.36v1.18h-2.36v-1.18Z"/>
      <path class="cls-13" d="m24.78,94.7h2.36v1.18h-2.36v-1.18Z"/>
      <path class="cls-13" d="m22.42,93.52h2.36v1.18h-2.36v-1.18Z"/>
      <path class="cls-13" d="m20.07,92.34h2.36v1.18h-2.36v-1.18Z"/>
      <path class="cls-13" d="m17.71,91.16h2.36v1.18h-2.36v-1.18Z"/>
      <path class="cls-13" d="m15.35,89.99h2.36v1.18h-2.36v-1.18Z"/>
      <path class="cls-13" d="m13,88.81h2.36v1.18h-2.36v-1.18Z"/>
      <path class="cls-13" d="m10.64,87.63h2.36v1.18h-2.36v-1.18Z"/>
      <path class="cls-13" d="m8.28,86.45h2.36v1.18h-2.36v-1.18Z"/>
      <path class="cls-13" d="m5.93,85.27h2.36v1.18h-2.36v-1.18Z"/>
      <path class="cls-13" d="m33.03,55.81h1.18v-1.18h2.34v-1.16h2.37v-1.2h2.36v-1.18h2.36v-1.18h2.36v-1.18h2.36v-1.18h2.36v1.18h2.36v1.18h2.36v1.18h2.36v1.18h2.36v1.18h2.36v1.18h2.36v1.18h2.36v1.18h2.36v2.36h-1.18v2.36h-1.18v2.36h-1.18v2.36h-1.18v2.36h-1.18v2.36h-1.18v2.36h-2.36v-1.18h-2.36v-1.18h-2.36v-1.18h-2.36v-1.18h-2.36v-1.18h-2.36v-1.18h-2.36v-1.18h-2.36v-1.18h-2.36v-1.18h-2.36v-1.18h-2.36v-1.18h-2.36v-1.18h-2.36v-2.36h1.18v-1.18Z"/>
      <path class="cls-10" d="m42.45,46.39h1.18v-1.18h2.36v1.18h2.36v1.18h-2.36v1.18h-2.36v1.18h-2.36v1.18h-2.36v-1.18h1.18v-1.18h1.18v-1.18h1.18v-1.18Z"/>
      <path class="cls-13" d="m70.74,59.35v2.36h-1.18v-2.36h1.18Z"/>
      <path class="cls-10" d="m38.92,52.28h-1.18v-1.18h1.18v1.18Z"/>
    </g>
    <g id="Lines">
      <path class="cls-5" d="m60.13,105.3v1.18h-2.36v-1.18h2.36Z"/>
      <path class="cls-5" d="m62.49,104.13v1.18h-2.36v-1.18h2.36Z"/>
      <path class="cls-5" d="m64.84,102.95v1.18h-2.36v-1.18h2.36Z"/>
      <path class="cls-5" d="m10.64,95.88h-2.36v-1.18h2.36v1.18Z"/>
      <path class="cls-5" d="m8.28,94.7h-2.36v-1.18h2.36v1.18Z"/>
      <path class="cls-5" d="m5.93,93.52h-2.36v-1.18h2.36v1.18Z"/>
      <path class="cls-5" d="m3.57,92.34H1.21v-1.18h2.36v1.18Z"/>
      <path class="cls-5" d="m120.23,67.6v8.25h-1.18v-8.25h-2.36v-1.18h2.36v-8.24h1.18c0,2.35,0,4.63,0,6.92,0,.03.01.06.03.08.02.03.04.05.06.07h1.09v1.14c-.37.02-.74.04-1.18.06v1.15Z"/>
      <path class="cls-5" d="m67.2,92.34v1.15c-.37.02-.74.03-1.18.06v9.4h-1.18v-8.25h-2.36v-1.18h2.36v-8.24h1.18c0,2.35,0,4.63,0,6.92,0,.03.01.06.03.08.02.03.04.05.06.07h1.09Z"/>
      <path class="cls-5" d="m1.21,82.92v-1.11c.35-.17.75,0,1.16-.11v-11.74h1.19v1.18c.45,0,.84,0,1.23,0,.38,0,.76.01,1.13.02v1.16h-2.36v10.61H1.21Z"/>
      <path class="cls-5" d="m1.21,91.16H.13c-.14-.82-.18-5.4-.07-8.25h1.15v1.18h2.36v1.18H1.21v5.89Z"/>
      <path class="cls-5" d="m124.94,44.03v10.58h-1.18v-10.58h1.18Z"/>
      <path class="cls-5" d="m48.35,111.2v-1.18h2.36v1.18h-2.36Z"/>
      <path class="cls-5" d="m3.57,69.95v-1.18h2.36v1.18h-2.36Z"/>
      <path class="cls-5" d="m57.77,106.48v1.18h-2.36v-1.18h2.36Z"/>
      <path class="cls-5" d="m71.91,28.71v-1.18h2.36v1.18h-2.36Z"/>
      <path class="cls-5" d="m69.56,29.89v-1.18h2.36v1.18h-2.36Z"/>
      <path class="cls-5" d="m76.63,27.53h2.36v1.18h-2.36v-1.18Z"/>
      <path class="cls-5" d="m74.27,26.35h2.36v1.18h-2.36v-1.18Z"/>
      <path class="cls-5" d="m86.05,28.71v-1.18h2.36v1.18h-2.36Z"/>
      <path class="cls-5" d="m88.41,27.53v-1.18h2.36v1.18h-2.36Z"/>
      <path class="cls-5" d="m90.77,27.53h2.36v1.18h-2.36v-1.18Z"/>
      <path class="cls-5" d="m78.98,28.71h2.36v1.18h-2.36v-1.18Z"/>
      <path class="cls-5" d="m83.7,29.89v-1.18h2.36v1.18h-2.36Z"/>
      <path class="cls-5" d="m93.12,28.71h2.36v1.18h-2.36v-1.18Z"/>
      <path class="cls-5" d="m81.34,29.89h2.36v1.18h-2.36v-1.18Z"/>
      <path class="cls-5" d="m95.48,29.89h2.36v1.18h-2.36v-1.18Z"/>
      <path class="cls-5" d="m97.84,31.07h2.36v1.18h-2.36v-1.18Z"/>
      <path class="cls-5" d="m62.49,33.42v-1.18h2.36v1.18h-2.36Z"/>
      <path class="cls-5" d="m64.84,32.25v-1.18h2.36v1.18h-2.36Z"/>
      <path class="cls-5" d="m67.2,31.07v-1.18h2.36v1.18h-2.36Z"/>
      <path class="cls-5" d="m100.19,32.25h2.36v1.18h-2.36v-1.18Z"/>
      <path class="cls-5" d="m60.13,34.6v-1.18h2.36v1.18h-2.36Z"/>
      <path class="cls-5" d="m102.55,33.42h2.36v1.18h-2.36v-1.18Z"/>
      <path class="cls-5" d="m57.77,35.78v-1.18h2.36v1.18h-2.36Z"/>
      <path class="cls-5" d="m104.91,34.6h2.36v1.18h-2.36v-1.18Z"/>
      <path class="cls-5" d="m55.42,36.96v-1.18h2.36v1.18h-2.36Z"/>
      <path class="cls-5" d="m107.27,35.78h2.36v1.18h-2.36v-1.18Z"/>
      <path class="cls-5" d="m53.06,38.14v-1.18h2.36v1.18h-2.36Z"/>
      <path class="cls-5" d="m109.62,36.96h2.36v1.18h-2.36v-1.18Z"/>
      <path class="cls-5" d="m50.7,39.32v-1.18h2.36v1.18h-2.36Z"/>
      <path class="cls-5" d="m111.98,38.14h2.36v1.18h-2.36v-1.18Z"/>
      <path class="cls-5" d="m48.35,40.49v-1.18h2.36v1.18h-2.36Z"/>
      <path class="cls-5" d="m114.34,39.32h2.36v1.18h-2.36v-1.18Z"/>
      <path class="cls-5" d="m45.99,41.67v-1.18h2.36v1.18h-2.36Z"/>
      <path class="cls-5" d="m116.69,40.49h2.36v1.18h-2.36v-1.18Z"/>
      <path class="cls-5" d="m43.63,42.85v-1.18h2.36v1.18h-2.36Z"/>
      <path class="cls-5" d="m119.05,41.67h2.36v1.18h-2.36v-1.18Z"/>
      <path class="cls-5" d="m86.05,32.25h-2.36v-1.18h2.36v1.18Z"/>
      <path class="cls-5" d="m88.41,33.42h-2.36v-1.18h2.36v1.18Z"/>
      <path class="cls-5" d="m90.77,34.6h-2.36v-1.18h2.36v1.18Z"/>
      <path class="cls-5" d="m93.12,35.78h-2.36v-1.18h2.36v1.18Z"/>
      <path class="cls-5" d="m95.48,36.96h-2.36v-1.18h2.36v1.18Z"/>
      <path class="cls-5" d="m97.84,38.14h-2.36v-1.18h2.36v1.18Z"/>
      <path class="cls-5" d="m100.19,39.32h-2.36v-1.18h2.36v1.18Z"/>
      <path class="cls-5" d="m102.55,40.49h-2.36v-1.18h2.36v1.18Z"/>
      <path class="cls-5" d="m103.73,41.67h-1.18v-1.18h1.18v1.18Z"/>
      <path class="cls-5" d="m104.91,42.85h-1.18v-1.18h1.18v1.18Z"/>
      <path class="cls-5" d="m62.49,75.85v-1.18h1.18v-1.18h1.18v-2.36h1.18v2.36h1.18v1.17h-2.28c-.18.38,0,.78-.14,1.19h-2.3Z"/>
      <path class="cls-5" d="m104.91,52.28h1.14c.02.37.04.74.06,1.18h1.15v1.18h-2.36v-2.36Z"/>
      <path class="cls-5" d="m121.41,42.85h2.36v1.18h-2.36v-1.18Z"/>
      <path class="cls-5" d="m102.55,84.09v-1.18h2.36v1.18h-2.36Z"/>
      <path class="cls-5" d="m107.27,81.74v1.18h-2.36v-1.18h2.36Z"/>
      <path class="cls-5" d="m53.06,108.84v1.18h-2.36v-1.18h2.36Z"/>
      <path class="cls-5" d="m55.42,107.66v1.18h-2.36v-1.18h2.36Z"/>
      <path class="cls-5" d="m109.62,80.56v1.18h-2.36v-1.18h2.36Z"/>
      <path class="cls-5" d="m111.98,79.38v1.18h-2.36v-1.18h2.36Z"/>
      <path class="cls-5" d="m114.34,78.2v1.18h-2.36v-1.18h2.36Z"/>
      <path class="cls-5" d="m116.69,77.02v1.18h-2.36v-1.18h2.36Z"/>
      <path class="cls-5" d="m119.05,75.85v1.18h-2.36v-1.18h2.36Z"/>
      <path class="cls-5" d="m27.14,58.17v-1.18h2.36v1.18h-2.36Z"/>
      <path class="cls-5" d="m24.78,59.35v-1.18h2.36v1.18h-2.36Z"/>
      <path class="cls-5" d="m22.42,60.53v-1.18h2.36v1.18h-2.36Z"/>
      <path class="cls-5" d="m20.07,61.7v-1.18h2.36v1.18h-2.36Z"/>
      <path class="cls-5" d="m17.71,62.88v-1.18h2.36v1.18h-2.36Z"/>
      <path class="cls-5" d="m15.35,64.06v-1.18h2.36v1.18h-2.36Z"/>
      <path class="cls-5" d="m13,65.24v-1.18h2.36v1.18h-2.36Z"/>
      <path class="cls-5" d="m10.64,66.42v-1.18h2.36v1.18h-2.36Z"/>
      <path class="cls-5" d="m8.28,67.6v-1.18h2.36v1.18h-2.36Z"/>
      <path class="cls-5" d="m5.93,68.78v-1.18h2.36v1.18h-2.36Z"/>
      <path class="cls-5" d="m36.56,49.92v-1.18h1.18v1.18h-1.18Z"/>
      <path class="cls-5" d="m37.74,48.74v-1.18h1.18v1.18h-1.18Z"/>
      <path class="cls-5" d="m35.38,51.1v-1.18h1.18v1.18h-1.18Z"/>
      <path class="cls-5" d="m38.92,47.56v-1.18h1.18v1.18h-1.18Z"/>
      <path class="cls-5" d="m29.49,56.99v-1.18h1.18v1.18h-1.18Z"/>
      <path class="cls-5" d="m40.1,46.39v-1.18h1.18v1.18h-1.18Z"/>
      <path class="cls-5" d="m34.21,52.28v-1.18h1.18v1.18h-1.18Z"/>
      <path class="cls-5" d="m30.67,55.81v-1.18h1.18v1.18h-1.18Z"/>
      <path class="cls-5" d="m31.85,54.63v-1.18h1.18v1.18h-1.18Z"/>
      <path class="cls-5" d="m122.58,64.06v1.18h-1.18v-1.18h1.18Z"/>
      <path class="cls-5" d="m41.28,45.21v-1.18h1.18v1.18h-1.18Z"/>
      <path class="cls-5" d="m123.76,62.88v1.18h-1.18v-1.18h1.18Z"/>
      <path class="cls-5" d="m42.45,44.03v-1.18h1.18v1.18h-1.18Z"/>
      <path class="cls-5" d="m33.03,53.46v-1.18h1.18v1.18h-1.18Z"/>
      <path class="cls-5" d="m126.12,60.53v1.18h-1.18v-1.18h1.18Z"/>
      <path class="cls-5" d="m126.13,51.1v1.18h-1.19v-1.18h1.19Z"/>
      <path class="cls-5" d="m126.13,53.44v1.18h-1.19v-1.18h1.19Z"/>
      <path class="cls-5" d="m127.3,52.28v8.25h-1.18v-8.25h1.18Z"/>
      <path class="cls-5" d="m124.94,61.7v1.18h-1.18v-1.18h1.18Z"/>
      <path class="cls-5" d="m48.35,110.02h-1.09s-.04-.04-.06-.07c-.02-.03-.03-.06-.03-.08,0-2.28,0-4.57,0-6.92h-1.18v-1.15c.44-.02.81-.04,1.18-.06,0-3.13,0-6.19,0-9.24,0-.03.02-.06.03-.08.02-.03.05-.04.07-.07h1.07v8.25h2.36v1.18h-2.36v8.24Z"/>
      <path class="cls-5" d="m36.56,107.66v1.16c-.37,0-.75.02-1.13.02-.39,0-.77,0-1.23,0v-1.18h2.36Z"/>
      <path class="cls-5" d="m38.92,106.48v1.18h-2.36v-1.18h2.36Z"/>
      <path class="cls-5" d="m34.21,107.66h-2.36v-1.18h2.36v1.18Z"/>
      <path class="cls-5" d="m41.28,105.3v1.18h-2.36v-1.18h2.36Z"/>
      <path class="cls-5" d="m31.85,106.48h-2.36v-1.18h2.36v1.18Z"/>
      <path class="cls-5" d="m43.63,104.13v1.18h-2.36v-1.18h2.36Z"/>
      <path class="cls-5" d="m29.49,105.3h-2.36v-1.18h2.36v1.18Z"/>
      <path class="cls-5" d="m45.99,102.95v1.18h-2.36v-1.18h2.36Z"/>
      <path class="cls-5" d="m27.14,104.13h-2.36v-1.18h2.36v1.18Z"/>
      <path class="cls-5" d="m24.78,102.95h-2.36v-1.18h2.36v1.18Z"/>
      <path class="cls-5" d="m22.42,101.77h-2.36v-1.18h2.36v1.18Z"/>
      <path class="cls-5" d="m20.07,100.59h-2.36v-1.18h2.36v1.18Z"/>
      <path class="cls-5" d="m17.71,99.41h-2.36v-1.18h2.36v1.18Z"/>
      <path class="cls-5" d="m15.35,98.23h-2.36v-1.18h2.36v1.18Z"/>
      <path class="cls-5" d="m13,97.06h-2.36v-1.18h2.36v1.18Z"/>
      <path class="cls-5" d="m102.55,82.92h-1.09s-.04-.04-.06-.07c-.02-.03-.03-.06-.03-.08,0-2.28,0-4.57,0-6.92h-1.18v-1.15c.44-.02.81-.04,1.18-.06,0-3.13,0-6.19,0-9.24,0-.03.02-.06.03-.08.02-.03.05-.04.07-.07h1.07v8.25h2.36v1.18h-2.36v8.24Z"/>
      <path class="cls-5" d="m69.56,91.16v1.18h-2.36v-1.18h2.36Z"/>
      <path class="cls-5" d="m71.91,89.99v1.18h-2.36v-1.18h2.36Z"/>
      <path class="cls-5" d="m74.27,88.81v1.18h-2.36v-1.18h2.36Z"/>
      <path class="cls-5" d="m76.63,87.63v1.18h-2.36v-1.18h2.36Z"/>
      <path class="cls-5" d="m78.98,86.45v1.18h-2.36v-1.18h2.36Z"/>
      <path class="cls-5" d="m81.34,85.27v1.18h-2.36v-1.18h2.36Z"/>
      <path class="cls-5" d="m83.7,84.09v1.18h-2.36v-1.18h2.36Z"/>
      <path class="cls-5" d="m86.05,82.92v1.18h-2.36v-1.18h2.36Z"/>
      <path class="cls-5" d="m90.77,80.56v1.18h-2.36v-1.18h2.36Z"/>
      <path class="cls-5" d="m93.12,79.38v1.18h-2.36v-1.18h2.36Z"/>
      <path class="cls-5" d="m95.48,78.2v1.18h-2.36v-1.18h2.36Z"/>
      <path class="cls-5" d="m97.84,77.02v1.18h-2.36v-1.18h2.36Z"/>
      <path class="cls-5" d="m100.19,75.85v1.18h-2.36v-1.18h2.36Z"/>
      <path class="cls-5" d="m88.41,81.74v1.18h-2.36v-1.18h2.36Z"/>
      <path class="cls-5" d="m107.27,72.31v1.18h-2.36v-1.18h2.36Z"/>
      <path class="cls-5" d="m109.62,71.13v1.18h-2.36v-1.18h2.36Z"/>
      <path class="cls-5" d="m111.98,69.95v1.18h-2.36v-1.18h2.36Z"/>
      <path class="cls-5" d="m114.34,68.78v1.18h-2.36v-1.18h2.36Z"/>
      <path class="cls-5" d="m116.69,67.6v1.18h-2.36v-1.18h2.36Z"/>
      <path class="cls-5" d="m50.7,100.59v-1.18h2.36v1.18h-2.36Z"/>
      <path class="cls-5" d="m53.06,99.41v-1.18h2.36v1.18h-2.36Z"/>
      <path class="cls-5" d="m55.42,98.23v-1.18h2.36v1.18h-2.36Z"/>
      <path class="cls-5" d="m57.77,97.06v-1.18h2.36v1.18h-2.36Z"/>
      <path class="cls-5" d="m60.13,95.88v-1.18h2.36v1.18h-2.36Z"/>
      <path class="cls-5" d="m62.49,74.67h-2.36v-1.18h2.36v1.18Z"/>
      <path class="cls-5" d="m60.13,73.49h-2.36v-1.18h2.36v1.18Z"/>
      <path class="cls-5" d="m57.77,72.31h-2.36v-1.18h2.36v1.18Z"/>
      <path class="cls-5" d="m30.67,56.99h1.18v2.36h-1.18v-2.36Z"/>
      <path class="cls-5" d="m34.21,60.53h-2.36v-1.18h2.36v1.18Z"/>
      <path class="cls-5" d="m36.56,61.7h-2.36v-1.18h2.36v1.18Z"/>
      <path class="cls-5" d="m55.42,71.13h-2.36v-1.18h2.36v1.18Z"/>
      <path class="cls-5" d="m38.92,62.88h-2.36v-1.18h2.36v1.18Z"/>
      <path class="cls-5" d="m41.28,64.06h-2.36v-1.18h2.36v1.18Z"/>
      <path class="cls-5" d="m43.63,65.24h-2.36v-1.18h2.36v1.18Z"/>
      <path class="cls-5" d="m45.99,66.42h-2.36v-1.18h2.36v1.18Z"/>
      <path class="cls-5" d="m48.35,67.6h-2.36v-1.18h2.36v1.18Z"/>
      <path class="cls-5" d="m50.7,68.78h-2.36v-1.18h2.36v1.18Z"/>
      <path class="cls-5" d="m53.06,69.95h-2.36v-1.18h2.36v1.18Z"/>
      <path class="cls-5" d="m43.63,45.21v-1.18h2.36v1.18h-2.36Z"/>
      <path class="cls-5" d="m45.99,45.21h2.36v1.18h-2.36v-1.18Z"/>
      <path class="cls-5" d="m93.12,46.39v-1.18h2.36v1.18h-2.36Z"/>
      <path class="cls-5" d="m95.48,45.21v-1.18h2.36v1.18h-2.36Z"/>
      <path class="cls-5" d="m48.35,46.39h2.36v1.18h-2.36v-1.18Z"/>
      <path class="cls-5" d="m90.77,47.56v-1.18h2.36v1.18h-2.36Z"/>
      <path class="cls-5" d="m50.7,47.56h2.36v1.18h-2.36v-1.18Z"/>
      <path class="cls-5" d="m88.41,48.74v-1.18h2.36v1.18h-2.36Z"/>
      <path class="cls-5" d="m53.06,48.74h2.36v1.18h-2.36v-1.18Z"/>
      <path class="cls-5" d="m86.05,49.92v-1.18h2.36v1.18h-2.36Z"/>
      <path class="cls-5" d="m55.42,49.92h2.36v1.18h-2.36v-1.18Z"/>
      <path class="cls-5" d="m83.7,51.1v-1.18h2.36v1.18h-2.36Z"/>
      <path class="cls-5" d="m57.77,51.1h2.36v1.18h-2.36v-1.18Z"/>
      <path class="cls-5" d="m81.34,52.28v-1.18h2.36v1.18h-2.36Z"/>
      <path class="cls-5" d="m60.13,52.28h2.36v1.18h-2.36v-1.18Z"/>
      <path class="cls-5" d="m78.98,53.46v-1.18h2.36v1.18h-2.36Z"/>
      <path class="cls-5" d="m62.49,53.46h2.36v1.18h-2.36v-1.18Z"/>
      <path class="cls-5" d="m76.63,54.63v-1.18h2.36v1.18h-2.36Z"/>
      <path class="cls-5" d="m64.84,54.63h2.36v1.18h-2.36v-1.18Z"/>
      <path class="cls-5" d="m74.27,55.81v-1.18h2.36v1.18h-2.36Z"/>
      <path class="cls-5" d="m67.2,55.81h2.36v1.18h-2.36v-1.18Z"/>
      <path class="cls-5" d="m69.56,56.99h1.18v2.36h-1.18v-2.36Z"/>
      <path class="cls-5" d="m71.91,59.35v-2.36h1.18v2.36h-1.18Z"/>
      <path class="cls-5" d="m70.74,59.35h1.18v2.36h-1.18v-2.36Z"/>
      <path class="cls-5" d="m97.84,45.21h1.18v1.18h-1.18v-1.18Z"/>
      <path class="cls-5" d="m101.37,48.74h1.18v1.18h-1.18v-1.18Z"/>
      <path class="cls-5" d="m100.19,47.56h1.18v1.18h-1.18v-1.18Z"/>
      <path class="cls-5" d="m99.02,46.39h1.18v1.18h-1.18v-1.18Z"/>
      <path class="cls-5" d="m102.55,49.92h1.18v1.18h-1.18v-1.18Z"/>
      <path class="cls-5" d="m73.09,56.99v-1.18h1.18v1.18h-1.18Z"/>
      <path class="cls-5" d="m103.73,51.1h1.18v1.18h-1.18v-1.18Z"/>
      <path class="cls-5" d="m110.8,48.74h-1.18v-1.18h1.18v1.18Z"/>
      <path class="cls-5" d="m106.09,44.03h-1.18v-1.18h1.18v1.18Z"/>
      <path class="cls-5" d="m109.62,47.56h-1.18v-1.18h1.18v1.18Z"/>
      <path class="cls-5" d="m108.44,46.39h-1.18v-1.18h1.18v1.18Z"/>
      <path class="cls-5" d="m111.98,49.92h-1.18v-1.18h1.18v1.18Z"/>
      <path class="cls-5" d="m107.27,45.21h-1.18v-1.18h1.18v1.18Z"/>
      <path class="cls-5" d="m102.55,55.81v1.18h-2.36v-1.18h2.36Z"/>
      <path class="cls-5" d="m24.78,81.74h2.36v1.18h-2.36v-1.18Z"/>
      <path class="cls-5" d="m36.56,100.59v1.16c-.37,0-.75.02-1.13.02-.39,0-.77,0-1.23,0v-1.18h2.36Z"/>
      <path class="cls-5" d="m36.56,99.41h2.29c.17.36,0,.74.11,1.18h-2.4v-1.18Z"/>
      <path class="cls-5" d="m34.21,100.59h-2.36v-1.18h2.36v1.18Z"/>
      <path class="cls-5" d="m34.21,98.23h2.36v1.18h-2.36v-1.18Z"/>
      <path class="cls-5" d="m31.85,99.41h-2.36v-1.18h2.36v1.18Z"/>
      <path class="cls-5" d="m31.85,97.06h2.36v1.18h-2.36v-1.18Z"/>
      <path class="cls-5" d="m29.49,98.23h-2.36v-1.18h2.36v1.18Z"/>
      <path class="cls-5" d="m29.49,95.88h2.36v1.18h-2.36v-1.18Z"/>
      <path class="cls-5" d="m27.14,97.06h-2.36v-1.18h2.36v1.18Z"/>
      <path class="cls-5" d="m27.14,94.7h2.36v1.18h-2.36v-1.18Z"/>
      <path class="cls-5" d="m24.78,95.88h-2.36v-1.18h2.36v1.18Z"/>
      <path class="cls-5" d="m24.78,93.52h2.36v1.18h-2.36v-1.18Z"/>
      <path class="cls-5" d="m22.42,94.7h-2.36v-1.18h2.36v1.18Z"/>
      <path class="cls-5" d="m22.42,92.34h2.36v1.18h-2.36v-1.18Z"/>
      <path class="cls-5" d="m20.07,93.52h-2.36v-1.18h2.36v1.18Z"/>
      <path class="cls-5" d="m50.7,91.16v1.18h-2.36v-1.18h2.36Z"/>
      <path class="cls-5" d="m20.07,91.16h2.36v1.18h-2.36v-1.18Z"/>
      <path class="cls-5" d="m17.71,92.34h-2.36v-1.18h2.36v1.18Z"/>
      <path class="cls-5" d="m53.06,89.99v1.18h-2.36v-1.18h2.36Z"/>
      <path class="cls-5" d="m17.71,89.99h2.36v1.18h-2.36v-1.18Z"/>
      <path class="cls-5" d="m15.35,91.16h-2.36v-1.18h2.36v1.18Z"/>
      <path class="cls-5" d="m55.42,88.81v1.18h-2.36v-1.18h2.36Z"/>
      <path class="cls-5" d="m15.35,88.81h2.36v1.18h-2.36v-1.18Z"/>
      <path class="cls-5" d="m13,89.99h-2.36v-1.18h2.36v1.18Z"/>
      <path class="cls-5" d="m57.77,87.63v1.18h-2.36v-1.18h2.36Z"/>
      <path class="cls-5" d="m36.56,87.63h2.36v1.16c-.37,0-.75.02-1.13.02-.39,0-.77,0-1.23,0v-1.18Z"/>
      <path class="cls-5" d="m13,87.63h2.36v1.18h-2.36v-1.18Z"/>
      <path class="cls-5" d="m10.64,88.81h-2.36v-1.18h2.36v1.18Z"/>
      <path class="cls-5" d="m60.13,86.45v1.18h-2.36v-1.18h2.36Z"/>
      <path class="cls-5" d="m38.92,87.63v-1.18h2.36v1.18h-2.36Z"/>
      <path class="cls-5" d="m34.21,86.45h2.36v1.18h-2.36v-1.18Z"/>
      <path class="cls-5" d="m10.64,86.45h2.36v1.18h-2.36v-1.18Z"/>
      <path class="cls-5" d="m8.28,87.63h-2.36v-1.18h2.36v1.18Z"/>
      <path class="cls-5" d="m62.49,85.27v1.18h-2.36v-1.18h2.36Z"/>
      <path class="cls-5" d="m41.28,86.45v-1.18h2.36v1.18h-2.36Z"/>
      <path class="cls-5" d="m31.85,85.27h2.36v1.18h-2.36v-1.18Z"/>
      <path class="cls-5" d="m8.28,85.27h2.36v1.18h-2.36v-1.18Z"/>
      <path class="cls-5" d="m3.57,85.27h2.36v1.18h-2.36v-1.18Z"/>
      <path class="cls-5" d="m64.84,85.27h-2.36v-1.16c.37,0,.75-.02,1.13-.02.39,0,.77,0,1.23,0v1.18Z"/>
      <path class="cls-5" d="m43.63,85.27v-1.18h2.36v1.18h-2.36Z"/>
      <path class="cls-5" d="m29.49,84.09h2.36v1.18h-2.36v-1.18Z"/>
      <path class="cls-5" d="m5.93,85.27v-1.18h2.36v1.18h-2.36Z"/>
      <path class="cls-5" d="m45.99,84.09v-1.18h2.36v1.18h-2.36Z"/>
      <path class="cls-5" d="m27.14,82.92h2.36v1.18h-2.36v-1.18Z"/>
      <path class="cls-5" d="m5.93,84.09h-2.36v-1.18h2.36v1.18Z"/>
      <path class="cls-5" d="m119.05,47.56v-1.18h2.36v1.18h-2.36Z"/>
      <path class="cls-5" d="m121.41,46.39v-1.18h2.36v1.18h-2.36Z"/>
      <path class="cls-5" d="m50.7,81.74v-1.18h2.36v1.18h-2.36Z"/>
      <path class="cls-5" d="m116.69,48.74v-1.18h2.36v1.18h-2.36Z"/>
      <path class="cls-5" d="m22.42,80.56h2.36v1.18h-2.36v-1.18Z"/>
      <path class="cls-5" d="m53.06,80.56v-1.18h2.36v1.18h-2.36Z"/>
      <path class="cls-5" d="m20.07,79.38h2.36v1.18h-2.36v-1.18Z"/>
      <path class="cls-5" d="m114.34,49.92v-1.18h2.36v1.18h-2.36Z"/>
      <path class="cls-5" d="m55.42,79.38v-1.18h2.36v1.18h-2.36Z"/>
      <path class="cls-5" d="m17.71,78.2h2.36v1.18h-2.36v-1.18Z"/>
      <path class="cls-5" d="m111.98,51.1v-1.18h2.36v1.18h-2.36Z"/>
      <path class="cls-5" d="m57.77,78.2v-1.18h2.36v1.18h-2.36Z"/>
      <path class="cls-5" d="m15.35,77.02h2.36v1.18h-2.36v-1.18Z"/>
      <path class="cls-5" d="m109.62,52.28v-1.18h2.36v1.18h-2.36Z"/>
      <path class="cls-5" d="m60.13,77.02v-1.18h2.36v1.18h-2.36Z"/>
      <path class="cls-5" d="m13,75.85h2.36v1.18h-2.36v-1.18Z"/>
      <path class="cls-5" d="m107.27,53.46v-1.18h2.36v1.18h-2.36Z"/>
      <path class="cls-5" d="m10.64,74.67h2.36v1.18h-2.36v-1.18Z"/>
      <path class="cls-5" d="m8.28,73.49h2.36v1.18h-2.36v-1.18Z"/>
      <path class="cls-5" d="m69.56,72.31v1.18h-2.36v-1.18h2.36Z"/>
      <path class="cls-5" d="m5.93,72.31h2.36v1.18h-2.36v-1.18Z"/>
      <path class="cls-5" d="m104.91,54.63v1.18h-2.36v-1.18h2.36Z"/>
      <path class="cls-5" d="m71.91,71.13v1.18h-2.36v-1.18h2.36Z"/>
      <path class="cls-5" d="m48.35,82.92v-1.18h2.36v1.18h-2.36Z"/>
      <path class="cls-5" d="m100.19,56.99v1.18h-2.36v-1.18h2.36Z"/>
      <path class="cls-5" d="m119.05,58.17h-2.36v-1.16c.37,0,.75-.02,1.13-.02.39,0,.77,0,1.23,0v1.18Z"/>
      <path class="cls-5" d="m97.84,58.17v1.18h-2.36v-1.18h2.36Z"/>
      <path class="cls-5" d="m116.69,58.17v1.18h-2.36v-1.18h2.36Z"/>
      <path class="cls-5" d="m74.27,69.95v1.18h-2.36v-1.18h2.36Z"/>
      <path class="cls-5" d="m95.48,59.35v1.18h-2.36v-1.18h2.36Z"/>
      <path class="cls-5" d="m114.34,59.35v1.18h-2.36v-1.18h2.36Z"/>
      <path class="cls-5" d="m93.12,60.53v1.18h-2.36v-1.18h2.36Z"/>
      <path class="cls-5" d="m111.98,60.53v1.18h-2.36v-1.18h2.36Z"/>
      <path class="cls-5" d="m90.77,61.7v1.18h-2.36v-1.18h2.36Z"/>
      <path class="cls-5" d="m109.62,61.7v1.18h-2.36v-1.18h2.36Z"/>
      <path class="cls-5" d="m88.41,62.88v1.18h-2.36v-1.18h2.36Z"/>
      <path class="cls-5" d="m107.27,62.88v1.18h-2.36v-1.18h2.36Z"/>
      <path class="cls-5" d="m76.63,68.78v1.18h-2.36v-1.18h2.36Z"/>
      <path class="cls-5" d="m86.05,64.06v1.18h-2.36v-1.18h2.36Z"/>
      <path class="cls-5" d="m104.91,64.06v1.18h-2.36v-1.18h2.36Z"/>
      <path class="cls-5" d="m83.7,65.24v1.18h-2.36v-1.18h2.36Z"/>
      <path class="cls-5" d="m81.34,66.42v1.18h-2.36v-1.18h2.36Z"/>
      <path class="cls-5" d="m78.98,67.6v1.18h-2.36v-1.18h2.36Z"/>
      <path class="cls-5" d="m69.56,61.7h1.18v2.36h-1.18v-2.36Z"/>
      <path class="cls-5" d="m69.56,64.06v2.36h-1.18v-2.36h1.18Z"/>
      <path class="cls-5" d="m66.02,71.13v-2.36h1.18v2.36h-1.18Z"/>
      <path class="cls-5" d="m68.38,66.42v2.36h-1.18v-2.36h1.18Z"/>
      <path class="cls-5" d="m62.49,73.49v-2.36h1.18v2.36h-1.18Z"/>
      <path class="cls-5" d="m63.67,71.13v-2.36h1.18v2.36h-1.18Z"/>
      <path class="cls-5" d="m64.84,68.78v-2.36h1.18v2.36h-1.18Z"/>
      <path class="cls-5" d="m45.99,48.74v-1.18h2.36v1.18h-2.36Z"/>
      <path class="cls-5" d="m43.63,49.92v-1.18h2.36v1.18h-2.36Z"/>
      <path class="cls-5" d="m41.28,51.1v-1.18h2.36v1.18h-2.36Z"/>
      <path class="cls-5" d="m38.92,52.28v-1.18h2.36v1.18h-2.36Z"/>
      <path class="cls-5" d="m69.56,59.35v2.36h-1.18v-2.36h1.18Z"/>
      <path class="cls-5" d="m67.2,64.06v-2.36h1.18v2.36h-1.18Z"/>
      <path class="cls-5" d="m66.02,66.42v-2.36h1.18v2.36h-1.18Z"/>
      <path class="cls-5" d="m38.92,48.74h1.18v1.18h-1.18v-1.18Z"/>
      <path class="cls-5" d="m37.74,51.1v-1.18h1.18v1.18h-1.18Z"/>
      <path class="cls-5" d="m34.21,54.63v-1.18h1.18v-1.18h1.18v-1.18h1.18v1.18h1.18v1.2h-2.37v1.16h-2.34Z"/>
      <path class="cls-5" d="m40.1,47.56h1.18v1.18h-1.18v-1.18Z"/>
      <path class="cls-5" d="m41.28,46.39h1.18v1.18h-1.18v-1.18Z"/>
      <path class="cls-5" d="m31.85,55.81h1.18v1.18h-1.18v-1.18Z"/>
      <path class="cls-5" d="m42.45,45.21h1.18v1.18h-1.18v-1.18Z"/>
      <path class="cls-5" d="m33.03,54.63h1.18v1.18h-1.18v-1.18Z"/>
    </g>
  </g>
  <g id="Joystick">
    <path class="cls-12" d="m53.85,6.13v-2.36h1.18v-1.18h2.36v-1.18h6.87v1.18h2.36v1.18h1.18v2.36h1.18v2.36h1.18v4.71h-1.18v2.36h-1.18v2.36h-1.18v1.18h-3.34v.98h-5.89v-1.18h-2.36v-1.18h-1.18v-2.16h-1.18v-2.36h-1.18v-4.71h1.18v-2.36h1.18"/>
    <rect class="cls-5" x="57.38" y=".43" width="6.87" height=".98"/>
    <rect class="cls-5" x="55.02" y="1.41" width="2.36" height="1.18"/>
    <rect class="cls-5" x="64.25" y="1.41" width="2.36" height="1.18"/>
    <rect class="cls-5" x="53.85" y="2.59" width="1.18" height="1.18"/>
    <rect class="cls-5" x="66.61" y="2.59" width="1.18" height="1.18"/>
    <rect class="cls-5" x="52.67" y="3.77" width="1.18" height="2.36"/>
    <rect class="cls-5" x="67.79" y="3.77" width="1.18" height="2.36"/>
    <rect class="cls-5" x="51.49" y="6.13" width="1.18" height="2.36"/>
    <rect class="cls-5" x="68.97" y="6.13" width="1.18" height="2.36"/>
    <rect class="cls-5" x="50.29" y="8.48" width="1.2" height="4.71"/>
    <rect class="cls-5" x="70.14" y="8.48" width="1.2" height="4.71"/>
    <rect class="cls-5" x="51.49" y="13.2" width="1.18" height="2.36"/>
    <rect class="cls-5" x="68.97" y="13.2" width="1.18" height="2.36"/>
    <rect class="cls-5" x="52.67" y="15.55" width="1.18" height="2.16"/>
    <rect class="cls-5" x="67.79" y="15.55" width="1.18" height="2.16"/>
    <rect class="cls-5" x="53.85" y="17.71" width="1.18" height="1.18"/>
    <rect class="cls-5" x="55.02" y="18.89" width="2.36" height="1.18"/>
    <rect class="cls-5" x="63.27" y="18.89" width="3.34" height="1.18"/>
    <rect class="cls-5" x="61.51" y="20.66" width="2.36" height="1.18" transform="translate(83.93 -41.44) rotate(90)"/>
    <rect class="cls-5" x="64.84" y="20.66" width="2.36" height="1.18" transform="translate(87.27 -44.77) rotate(90)"/>
    <rect class="cls-5" x="65.43" y="22.43" width="3.54" height="1.18" transform="translate(90.22 -44.19) rotate(90)"/>
    <rect class="cls-5" x="67.2" y="25.37" width="2.36" height="1.18" transform="translate(94.34 -42.42) rotate(90)"/>
    <rect class="cls-5" x="68.48" y="27.63" width="2.16" height="1.18" transform="translate(97.78 -41.34) rotate(90)"/>
    <rect class="cls-5" x="69.36" y="29.89" width="2.36" height="1.18" transform="translate(101.02 -40.06) rotate(90)"/>
    <rect class="cls-5" x="70.54" y="32.25" width="2.36" height="1.18" transform="translate(104.55 -38.88) rotate(90)"/>
    <rect class="cls-5" x="71.71" y="34.62" width="2.36" height="1.18" transform="translate(108.1 -37.69) rotate(90)"/>
    <rect class="cls-5" x="68.18" y="34.6" width="2.36" height="1.18" transform="translate(104.55 -34.17) rotate(90)"/>
    <rect class="cls-5" x="69.46" y="36.86" width="2.16" height="1.18" transform="translate(107.99 -33.09) rotate(90)"/>
    <rect class="cls-5" x="72.99" y="36.86" width="2.17" height="1.18" transform="translate(111.52 -36.63) rotate(90)"/>
    <rect class="cls-5" x="74.07" y="39.12" width="2.36" height="1.18" transform="translate(114.96 -35.54) rotate(90)"/>
    <rect class="cls-5" x="70.54" y="39.12" width="2.36" height="1.18" transform="translate(111.43 -32.01) rotate(90)"/>
    <rect class="cls-5" x="67" y="32.25" width="2.36" height="1.18" transform="translate(101.02 -35.35) rotate(90)"/>
    <rect class="cls-5" x="65.82" y="29.89" width="2.36" height="1.18" transform="translate(97.48 -36.53) rotate(90)"/>
    <rect class="cls-5" x="63.66" y="25.37" width="2.36" height="1.18" transform="translate(90.81 -38.88) rotate(90)"/>
    <rect class="cls-5" x="62.48" y="23.02" width="2.36" height="1.18" transform="translate(87.27 -40.06) rotate(90)"/>
    <rect class="cls-5" x="64.94" y="27.63" width="2.16" height="1.18" transform="translate(94.24 -37.8) rotate(90)"/>
    <rect class="cls-5" x="66.61" y="17.71" width="1.18" height="1.18" transform="translate(85.5 -48.9) rotate(90)"/>
    <rect class="cls-5" x="57.38" y="20.07" width="5.7" height="1.2"/>
    <polygon class="cls-11" points="60.92 6.13 60.92 4.98 60.72 4.98 60.72 3.77 56.06 3.77 56.06 4.98 54.87 4.98 54.87 6.13 53.85 6.13 53.85 10.09 53.85 10.09 53.85 10.84 54.87 10.84 54.87 12.02 59.87 12.02 59.87 10.84 60.93 10.84 60.93 10.09 61.66 10.09 61.66 6.13 60.92 6.13"/>
    <rect class="cls-2" x="58.56" y="2.79" width="2.16" height="2.16"/>
    <polygon class="cls-8" points="69.13 10.63 67.56 10.63 67.56 11.72 66.58 11.72 66.58 13 65.37 13 65.37 14.08 64.22 14.08 64.22 15.36 60.73 15.36 60.73 16.63 59.7 16.63 59.7 15.36 54.82 15.36 54.82 16.76 55.85 16.76 55.85 17.91 58.3 17.91 58.3 19.09 61.08 19.09 61.08 17.91 65.61 17.91 65.61 16.76 66.81 16.76 66.81 15.36 66.81 14.37 67.96 14.37 67.96 13 67.96 11.9 69.13 11.9 69.13 10.63"/>
    <path class="cls-5" d="m69.95,37.35h-3.53v-.98h3.53v.98Z"/>
    <path class="cls-5" d="m80.36,37.35h-5.7v-.99h5.7v.99Z"/>
    <path class="cls-5" d="m66.41,38.53h-4.52v-1.18h4.52v1.18Z"/>
    <path class="cls-5" d="m85.07,38.53h-4.71v-1.18h4.71v1.18Z"/>
    <path class="cls-5" d="m85.07,44.42h-4.71v-1.18h4.71v1.18Z"/>
    <path class="cls-6" d="m85.07,43.24h-4.71v-1.18h4.71v1.18Z"/>
    <path class="cls-6" d="m66.41,43.24h-4.52v-1.18h4.52v1.18Z"/>
    <path class="cls-5" d="m87.43,43.24h-2.36v-1.18h2.36v1.18Z"/>
    <path class="cls-5" d="m87.43,39.71h-2.36v-1.18h2.36v1.18Z"/>
    <path class="cls-5" d="m66.41,44.42h-4.52v-1.18h4.52v1.18Z"/>
    <path class="cls-5" d="m80.36,45.6h-13.94v-1.18h13.94v1.18Z"/>
    <path class="cls-6" d="m80.36,44.42h-13.94v-1.18h13.94v1.18Z"/>
    <path class="cls-5" d="m61.9,39.71h-2.36v-1.18h2.36v1.18Z"/>
    <path class="cls-5" d="m61.9,43.24h-2.36v-1.18h2.36v1.18Z"/>
    <path class="cls-5" d="m59.54,39.71v2.36h-1.18v-2.36h1.18Z"/>
    <path class="cls-5" d="m88.61,39.71v2.36h-1.18v-2.36h1.18Z"/>
    <path class="cls-13" d="m78.2,40.89h2.16v1.18h-2.16v-1.18Z"/>
    <path class="cls-4" d="m78.2,40.89v1.18h-9.43v-1.18h9.43Z"/>
    <path class="cls-3" d="m78,40.89h-2.16v-1.18h2.36v1.18h-.2Z"/>
    <path class="cls-2" d="m68.77,42.07h11.59v1.18s-9.35,0-13.94,0v-1.18h-4.52v-1.18h4.71v1.18h2.16Z"/>
    <path class="cls-6" d="m71.13,38.73v.98h-3.54v-1.18h3.54v.2Z"/>
    <path class="cls-4" d="m67.59,39.71h1.18v1.18h-3.54v-1.18s1.66,0,2.36,0Z"/>
    <path class="cls-3" d="m68.77,40.89v-1.18h2.36v1.18h-2.36Z"/>
    <path class="cls-13" d="m66.41,40.89h2.36v1.18h-2.36v-1.18Z"/>
    <path class="cls-2" d="m81.54,40.89h3.54v1.18h-4.71v-1.18h1.18Z"/>
    <path class="cls-9" d="m73.49,38.53h1.18v2.36h-2.36v-2.36h1.18Z"/>
    <path class="cls-6" d="m75.84,38.53s.12,0,.25,0c1,0,3.28,0,3.28,0v1.18h-3.54v-1.18Z"/>
    <path class="cls-4" d="m78.2,39.71h3.34v1.18h-3.34v-1.18Z"/>
    <path class="cls-2" d="m87.43,39.71v1.18h-2.36v-1.18h2.36Z"/>
    <path class="cls-2" d="m73.49,37.55h-1.18v-1.18h1.18v1.18Z"/>
    <path class="cls-13" d="m66.41,37.35s1.9,0,2.75,0h.79v1.18h-2.36v1.18h-2.36v1.18s-2.22,0-3.33,0v-2.36h4.52v-1.18Z"/>
    <path class="cls-6" d="m59.54,42.07v-1.18h2.36v1.18h-2.36Z"/>
    <path class="cls-2" d="m61.9,40.89h-2.36v-1.18h2.36v1.18Z"/>
    <path class="cls-6" d="m85.07,40.89h2.36v1.18h-2.36v-1.18Z"/>
    <path class="cls-13" d="m69.95,34.02h-1.18c0-.14,0-1.6,0-2.36h-1.18v-2.36h2.36v4.71Z"/>
    <path class="cls-7" d="m71.13,34.01v2.36h-1.18v-2.36h1.18Z"/>
    <path class="cls-7" d="m73.49,36.37v2.16h-2.36v-2.16h2.36Z"/>
    <path class="cls-13" d="m66.61,27.14h-1.18c0-.14,0-1.6,0-2.36h-1.18v-2.36h2.36v4.71Z"/>
    <path class="cls-4" d="m65.43,22.43h-2.16c0-.14,0-2.22,0-2.36h2.16v2.36Z"/>
    <path class="cls-7" d="m67.79,27.14v2.16h-1.18v-2.16h1.18Z"/>
    <path class="cls-13" d="m80.36,38.53h4.71v2.36h-3.54v-1.18h-2.16v-1.18h-4.71v-1.18s2.16,0,3.14,0c.79,0,1.77,0,2.55,0v1.18Z"/>
    <path class="cls-2" d="m66.61,27.14v-2.36h1.18v2.36h-1.18Z"/>
    <path class="cls-2" d="m68.97,27.14v2.16h-1.18v-2.16h1.18Z"/>
    <path class="cls-2" d="m71.13,31.66v2.36h-1.18v-2.36h1.18Z"/>
    <path class="cls-2" d="m72.31,34.01v2.36h-1.18v-2.36h1.18Z"/>
  </g>
  <g id="N_O_V_A" data-name="N O V A">
    <path class="cls-12" d="m43.79,21.46v-2.39h-2.37v-2.37h-2.39v-2.39h-2.37v-2.37h-2.39v-2.39h-2.37v11.93h-2.39V0h2.39v2.39h2.37v2.37h2.39v2.39h2.37v2.37h2.39v2.39h2.37V0h2.39v21.46h-2.39Z"/>
    <g>
      <path class="cls-12" d="m87.31,16.69v2.37h-2.37v2.39h-4.77v-2.39h-2.39v-2.37h-2.37V0h4.77v16.69h4.77V0h4.77v16.69h-2.39Z"/>
      <path class="cls-12" d="m104.01,21.46v-9.53h-4.77v9.53h-4.77V2.39h2.37V0h9.53v2.39h2.39v19.06h-4.77Zm0-19.06h-4.77v7.14h4.77V2.39Z"/>
    </g>
  </g>
</svg>